<?xml version="1.0" encoding="UTF-8"?>
<!DOCTYPE svg PUBLIC "-//W3C//DTD SVG 1.1//EN" "http://www.w3.org/Graphics/SVG/1.1/DTD/svg11.dtd">
<!-- Creator: CorelDRAW 2020 (64 Bit) -->
<svg xmlns="http://www.w3.org/2000/svg" xml:space="preserve" width="165px" height="225px" version="1.1" style="shape-rendering:geometricPrecision; text-rendering:geometricPrecision; image-rendering:optimizeQuality; fill-rule:evenodd; clip-rule:evenodd"
viewBox="0 0 2.8 3.82"
 xmlns:xlink="http://www.w3.org/1999/xlink"
 xmlns:xodm="http://www.corel.com/coreldraw/odm/2003">
 <defs>
  <style type="text/css">
   <![CDATA[
    .fil8 {fill:#E6E7E8}
    .fil3 {fill:#D2D3D5}
    .fil2 {fill:#BDBFC1}
    .fil5 {fill:#A9ABAE}
    .fil1 {fill:#96989A}
    .fil4 {fill:#848688}
    .fil7 {fill:#727376}
    .fil6 {fill:#606062}
    .fil9 {fill:#4B4B4D}
    .fil10 {fill:#E2E1DD}
    .fil0 {fill:#331E4D}
   ]]>
  </style>
 </defs>
 <g id="Camada_x0020_1">
  <metadata id="CorelCorpID_0Corel-Layer"/>
  <g id="_2818040761600">
   <path class="fil0" d="M0.73 0.24c-0.05,0.07 -0.02,0 -0.03,0.08 -0.01,0.06 -0.02,0.02 -0.05,0.1 -0.03,0.06 -0.03,0.01 -0.03,0.05 -0.02,0.07 0,0.05 -0.04,0.1l-0.01 0.03c-0.01,0.01 -0.01,0.02 -0.01,0.03 0,0 0,0.01 0,0.01l0.04 0.02c-0.01,0.06 -0.03,0.03 -0.06,0.05 -0.04,0.03 0.01,0.05 0.03,0.07 0.01,0.05 -0.01,0.01 -0.01,0.04 -0.01,0.03 -0.01,0 0,0.03l-0.02 0.02c0,0 0,0.01 0,0.01l0.01 0.03c-0.01,0.06 -0.02,0.08 0,0.13 0.01,0.03 0.03,0.08 0.03,0.1 0.01,0.04 0.01,0.09 0.01,0.13 0.01,0.05 0.03,0.05 0.05,0.1 0.01,0.04 0,0.08 0,0.12 0.01,0.07 0.03,0.14 0.03,0.25 0,0.05 0.01,0.06 0.03,0.1 0.06,0.02 0.02,0.02 0.06,0.04l-0.06 -0.32c-0.01,-0.03 0,-0.02 0,-0.06 -0.01,-0.06 -0.03,-0.08 -0.01,-0.2 0,-0.04 0,-0.13 0.03,-0.16 0.01,-0.04 0.02,-0.13 0.01,-0.19 0,-0.03 -0.01,-0.03 -0.02,-0.07 0,-0.04 0,-0.06 0,-0.09 0.02,-0.1 0.05,-0.14 0.09,-0.21 0.06,-0.09 0.05,-0.04 0.09,-0.02 0.08,0.03 0.27,-0.01 0.36,0 0.06,0 0.06,-0.02 0.11,-0.04 0.1,-0.04 0.14,-0.02 0.25,-0.03 0.05,0 0.1,0 0.15,0 0.09,0 0.05,0 0.1,0.04 0.1,-0.01 0.09,-0.02 0.1,0.08 0.01,0 0.01,0 0.01,0l0 0.02c0.04,-0.02 0,-0.02 0.03,-0.04l0.04 0.02c0.02,0.02 0.02,0.02 0.02,0.05 0.02,0.06 0.05,0.12 0.06,0.2 0.01,0.08 0.01,0.17 0.02,0.24 0.04,0.01 0.03,0.07 0.03,0.12 0,0.05 0.01,0.09 0.02,0.13 0.06,-0.04 0.04,-0.02 0.05,-0.1 0.01,-0.05 0.01,-0.02 0.02,-0.05 0.01,-0.04 0,-0.04 0.02,-0.07 0.01,-0.03 0.04,-0.02 0.03,-0.12 -0.02,-0.08 -0.03,-0.02 -0.01,-0.08 0.02,-0.09 -0.06,-0.09 -0.03,-0.09 -0.01,-0.13 -0.05,-0.09 -0.02,-0.14 0.04,-0.08 0.05,-0.04 0.02,-0.16 -0.03,-0.01 -0.03,0 -0.05,-0.02 -0.01,0 -0.04,-0.03 -0.04,-0.03 -0.01,-0.05 -0.03,-0.11 -0.04,-0.15 -0.01,-0.02 -0.02,-0.02 -0.03,-0.05 0,-0.01 -0.06,-0.06 -0.08,-0.07l0 -0.07c-0.05,-0.02 0.01,0.02 -0.07,-0.03 0,0 0,-0.01 0,-0.01 -0.02,-0.01 0,0 -0.02,-0.01 -0.12,-0.03 -0.16,-0.07 -0.21,-0.08l-0.13 -0.02 -0.29 0 0 0.02c-0.04,-0.01 -0.07,-0.02 -0.11,0 -0.05,0.02 -0.01,0.03 -0.09,0.03l-0.02 0.04c-0.08,0.02 -0.13,0.01 -0.21,0.05 -0.03,0.01 -0.12,0.08 -0.15,0.1z"/>
   <path class="fil1" d="M1.65 2.04c0.02,0 0.04,-0.01 0.06,-0.01 0.04,0 0.06,0.02 0.08,0.04 0,0.08 -0.01,0.14 0.02,0.17 -0.04,0.01 -0.03,0.01 -0.03,0.06 -0.05,0 -0.02,0 -0.05,0.02 -0.04,0.02 -0.03,0 -0.06,0.02 -0.01,0.01 0,0.01 -0.01,0.02 -0.03,0.05 -0.06,0.06 -0.12,0.06 -0.09,-0.01 -0.18,0.03 -0.22,-0.05 0,0 0,-0.01 0,-0.01 -0.03,-0.06 0,-0.02 -0.05,-0.05l0.01 -0.06c0.09,-0.06 0.09,0 0.19,-0.02 0.13,-0.04 0.14,-0.03 0.16,-0.09l-0.06 -0.01c-0.01,-0.02 0,0.01 -0.01,-0.02 -0.01,-0.05 0.01,0.01 0,-0.01 -0.02,-0.03 -0.18,0.02 -0.23,-0.03l-0.02 -0.02c0.05,-0.02 0.09,0 0.15,-0.01 0.03,0 0.09,-0.02 0.12,-0.01 0.03,0 0.04,0.01 0.07,0.01zm-0.4 -0.29c0.07,-0.03 0.13,-0.02 0.14,0.06 -0.06,0 -0.14,0.01 -0.14,-0.06zm-0.49 0.16c0.02,0.05 0.03,0.02 0.03,0.08 0.01,0.04 0.01,0.07 0.01,0.1 0.01,0.07 0.01,0.14 0,0.21 -0.01,0 -0.02,0 -0.04,0.01 0.04,0.01 0.03,0.01 0.04,0.05 0.01,0.15 -0.18,0.22 -0.13,0.45 0.02,0.09 -0.15,0.35 -0.09,0.42 0,0 0,0 0,0 0.02,0.03 0.04,0.02 0.07,0.04l0.05 0.03c0.03,0.01 0.01,0.01 0.05,0.01 0.01,0.03 0,0.02 0.01,0.03 0.01,0.01 0,0 0.02,0.01 0.02,0.03 0.02,0.03 0.03,0.07 0.04,0.09 0.05,0.03 0.06,0.09l0.01 0.03c0.01,0.03 -0.02,0.01 0.02,0.03l0 -0.05c0.03,-0.01 0.4,0.25 0.42,0.25 0.12,0.05 0.28,-0.24 0.43,-0.26 0.03,0 0.02,0.01 0.04,0 0.01,-0.01 0.01,-0.01 0.01,-0.02 0.02,-0.03 0.01,0.01 0,-0.01 0.05,0.02 0.05,0 0.07,-0.01 0.04,-0.02 0.04,-0.01 0.08,-0.01 0,0.03 0,0.05 -0.01,0.08 -0.01,0.04 -0.01,0.02 0.01,0.05 -0.02,0.03 -0.02,0.03 -0.04,0.05l0.03 -0.02c0.01,-0.01 0.01,-0.01 0.02,-0.02 0.01,-0.03 0.01,-0.03 0.01,-0.04 0.01,-0.03 -0.01,-0.02 0.02,-0.06 0.04,-0.06 -0.01,-0.07 0.07,-0.11 0.03,-0.02 0.01,-0.02 0.05,-0.04l-0.13 -0.3c0.04,-0.04 0.12,-0.1 0.13,-0.15 -0.02,0.01 -0.13,-0.05 -0.16,0 0,0 0,0 -0.01,0.01l-0.01 0.01c-0.03,0.06 -0.02,0.03 -0.08,0.06 0,0 0,0.01 0,0.01l-0.02 0.01c-0.01,-0.01 -0.01,-0.01 -0.01,-0.01 0,0 0,0 -0.01,0l-0.02 -0.08c0.03,-0.03 0.04,-0.02 0.06,-0.03 0.01,-0.01 0,0.01 0.01,-0.02 0.01,-0.02 0,0 0.01,-0.03 0.02,0 0,0.01 0,-0.01 -0.01,-0.02 0,0 -0.01,-0.04l0 -0.03c0,0 0,0 0,0l-0.1 0c0.02,-0.09 0.04,-0.05 0.09,-0.14 -0.01,-0.02 -0.03,-0.02 -0.03,-0.04 0.05,-0.05 0.02,-0.02 0.03,-0.05 0.02,-0.04 0,-0.02 0.05,-0.03l0.01 -0.04c0.02,-0.03 0,-0.01 0.01,-0.05 0,0 0,0 0.01,0 0.03,-0.09 0.03,-0.07 0.04,-0.18 -0.01,0.04 -0.01,0.01 -0.02,0.04 -0.03,0.08 0,0.03 -0.06,0.14 -0.01,0.08 -0.04,-0.01 -0.01,0.08 -0.04,0 -0.05,0.02 -0.07,0.06 -0.01,0.01 -0.01,0.01 -0.01,0.03 -0.03,0.07 -0.02,0.01 -0.03,0.06 -0.01,0.07 0,0.04 -0.04,0.09 -0.01,0.02 -0.01,0.01 -0.01,0.03l-0.02 0.04c-0.02,0.05 -0.03,0.01 -0.08,0.05 -0.02,0.02 -0.01,0 -0.05,0.02 -0.02,0.01 -0.03,0.02 -0.05,0.02 -0.09,0.04 -0.2,0.02 -0.26,-0.03 -0.02,-0.01 -0.03,-0.02 -0.09,-0.06l-0.01 -0.01c-0.01,0 -0.01,0 -0.01,-0.01 -0.06,-0.05 -0.06,-0.1 -0.08,-0.12 -0.02,-0.02 -0.02,-0.01 -0.02,-0.03 -0.01,-0.02 0,-0.01 -0.01,-0.02 0,-0.03 -0.08,-0.13 -0.11,-0.16l-0.02 -0.05c-0.01,-0.02 -0.01,-0.04 -0.01,-0.05 0,-0.03 0,-0.06 -0.01,-0.09 -0.02,-0.04 -0.01,-0.05 -0.03,-0.1 -0.01,-0.03 -0.01,-0.03 -0.01,-0.09 0.1,-0.03 0.02,0.01 0.1,0.02 -0.02,0.04 0,-0.01 -0.02,0.03 0.03,0 0.03,0 0.05,0.01 0.05,0.03 0.01,0 0.06,0.02l0.01 0.01c0.04,0.01 0.02,0 0.06,0 0.02,0.04 -0.01,0.04 0.07,0.05 0.01,0.05 0.03,0 0.01,0.04l-0.01 0.02c0.06,0 0.04,0.03 0.05,0.08 0.01,0.01 0.03,0.01 0.04,0.02 0.02,0.01 0,0.01 0.01,0.04 0.04,0.01 0.02,-0.01 0.05,0.03 0.05,0.06 0.14,0.02 0.18,0.02 0.19,-0.04 0.05,0.01 0.23,-0.08 0.01,-0.1 0.09,0 0.09,-0.13l0.05 0c-0.03,-0.02 -0.02,-0.01 -0.02,-0.05 0.06,0.02 0.06,-0.02 0.08,-0.04 0,0 0.01,0 0.01,0 0.02,-0.02 0.02,-0.01 0.04,-0.01 -0.01,-0.06 0,-0.08 -0.01,-0.11l0 -0.01c0,-0.01 -0.01,-0.01 -0.01,-0.01 -0.01,-0.08 0.02,-0.03 0.02,-0.08 0,-0.02 -0.01,-0.03 -0.04,-0.03 -0.01,0.05 -0.05,0.05 -0.1,0.05 0,-0.04 -0.04,-0.09 -0.08,-0.1 -0.02,-0.01 0,-0.01 -0.03,0 0.01,0.06 0.03,0.02 0.06,0.11l-0.04 -0.01c0.02,0.05 0.05,0.03 0.04,0.07 -0.06,-0.01 -0.1,0.01 -0.14,0.01 -0.07,-0.01 -0.07,-0.02 -0.15,0l-0.01 -0.02c-0.01,-0.01 0.01,0 -0.01,-0.01 -0.02,-0.01 -0.04,0 -0.05,0 -0.01,0.02 -0.01,-0.01 0,0.01 0.05,0.06 -0.01,-0.03 0.02,0.02 -0.38,0.01 -0.24,-0.01 -0.39,-0.02 -0.03,0 -0.03,-0.01 -0.04,-0.02 0,0 -0.01,-0.05 -0.01,-0.06 0.04,-0.02 0.01,-0.01 0.03,-0.03 0.01,-0.01 0.02,-0.01 0.03,-0.01 0.02,0 0.02,0 0.04,0.01 0.04,0.01 0,0 0.04,0 -0.02,0 -0.01,-0.01 -0.02,0.02 0.04,0.02 0.05,0.05 0.07,0.05 0.04,0.01 0.09,-0.01 0.15,0.01l0.02 0.01c0.01,0 0.03,0.01 0.03,0.01 0.09,0.02 0.09,0 0.1,-0.02 -0.05,0 -0.08,0.02 -0.12,0 -0.04,-0.02 -0.03,-0.03 -0.09,-0.04 0,0 0.01,-0.01 0.04,-0.03 0.01,0 0.03,-0.01 0.05,0 0.03,0 0.05,0.02 0.1,0.01 0.01,-0.01 0.01,-0.02 0.01,-0.03l0.01 -0.03c0.01,0 0.01,0 0.01,0 0.01,-0.02 -0.01,-0.01 0.01,-0.02l0.04 -0.02c0.02,-0.01 0.04,-0.02 0.05,-0.06 -0.03,-0.02 -0.02,-0.01 -0.05,-0.03 -0.09,-0.02 -0.14,0.11 -0.25,-0.04 -0.02,0.01 -0.01,0.01 -0.03,0.02 -0.02,0.02 -0.01,0.01 -0.04,0.02 -0.01,-0.09 0.03,-0.05 0.03,-0.1 0.01,-0.03 0.01,-0.01 0,-0.03 -0.07,0.01 0.02,0 -0.1,0.09 0,0 -0.02,-0.02 -0.03,0.06 0.05,0 0.03,-0.03 0.07,0.01 0.06,0.05 -0.04,0.08 -0.04,0.08 -0.06,0.03 0,0.02 -0.09,0.02 -0.08,0.01 -0.07,0.07 -0.13,0.05 -0.04,-0.01 -0.03,-0.05 -0.11,-0.07 0,0 0,0 0,0 -0.04,0 -0.01,0.02 -0.03,-0.01 -0.05,-0.06 -0.04,-0.15 -0.07,-0.22l-0.02 -0.05c0.01,0.13 0.06,0.22 0.06,0.35 -0.02,0.01 0.02,0.02 -0.03,0z"/>
   <path class="fil2" d="M0.88 1.51c0.02,-0.01 0.03,-0.01 0.04,-0.01 0.12,0 0.07,-0.02 0.15,-0.01 0.06,0 0.12,-0.02 0.16,0 0.01,0.05 0.01,0.14 -0.04,0.16 -0.04,0.03 -0.02,0.01 -0.05,0.05l-0.04 0.05c0,0 0,-0.01 0,0.02 -0.01,0.02 -0.01,0.01 -0.01,0.03 -0.04,0 -0.03,0.01 -0.06,0.02l-0.05 -0.03c-0.06,-0.05 -0.02,-0.03 -0.06,-0.1 -0.04,-0.05 -0.03,-0.03 -0.04,-0.09l-0.02 -0.04c0.03,-0.04 0.03,-0.01 0.02,-0.05zm-0.01 -0.3c0.02,0 0.02,-0.01 0.04,-0.01l0 -0.01c0.02,-0.04 0.15,-0.02 0.26,-0.03 0.06,0 0.17,0.03 0.22,0.06 -0.01,0.06 -0.02,-0.01 -0.02,0.12 0,0.05 0,0.08 -0.03,0.12 -0.04,0 -0.25,0 -0.28,-0.01 -0.06,-0.03 -0.13,0 -0.19,-0.06 0,0 0,-0.01 0,-0.01 -0.03,-0.02 0,0.02 -0.03,-0.02l0 -0.14c0.01,-0.01 0.01,0 0.03,-0.01zm-0.14 0.35l0.02 0.05c0.03,0.07 0.02,0.16 0.07,0.22 0.02,0.03 -0.01,0.01 0.03,0.01 0,0 0,0 0,0 0.08,0.02 0.07,0.06 0.11,0.07 0.06,0.02 0.05,-0.04 0.13,-0.05 0.09,0 0.03,0.01 0.09,-0.02 0,0 0.1,-0.03 0.04,-0.08 -0.04,-0.04 -0.02,-0.01 -0.07,-0.01 0.01,-0.08 0.03,-0.06 0.03,-0.06 0.12,-0.09 0.03,-0.08 0.1,-0.09 0.01,0.02 0.01,0 0,0.03 0,0.05 -0.04,0.01 -0.03,0.1 0.03,-0.01 0.02,0 0.04,-0.02 0.02,-0.01 0.01,-0.01 0.03,-0.02 0.11,0.15 0.16,0.02 0.25,0.04 -0.01,-0.03 -0.02,-0.03 -0.06,-0.02 -0.06,0.01 -0.05,0.01 -0.13,0.01 0,-0.07 -0.04,-0.05 0.07,-0.12 0,-0.04 -0.04,-0.1 -0.03,-0.12 0.02,-0.03 0,0.01 0.01,-0.02 -0.02,-0.04 -0.03,-0.01 -0.03,-0.07 0,-0.05 -0.01,-0.07 -0.01,-0.11 0.05,-0.02 0.02,-0.01 0.1,-0.02l0.03 0.02c-0.02,-0.06 -0.09,0.01 -0.07,-0.06 0.01,-0.03 0,-0.02 0.03,-0.02 0.03,-0.01 0.1,0 0.14,-0.03l-0.04 0c-0.05,0.01 -0.11,0.01 -0.16,0.02 -0.04,0 -0.07,-0.02 -0.11,-0.03 0,0 -0.02,0 -0.02,0 -0.01,-0.01 0.01,-0.01 -0.01,-0.01 -0.05,-0.01 -0.29,0.01 -0.35,-0.03 0.01,-0.02 -0.01,0 0.07,-0.03 0.03,-0.02 0.04,-0.02 0.08,-0.02 0,-0.1 0.02,-0.04 0.03,-0.09 0.02,0 -0.01,0.02 0,-0.02 0,-0.01 0,-0.03 0.02,-0.02 -0.02,-0.02 -0.01,-0.03 -0.03,-0.06 0,0 -0.01,0 -0.01,-0.02l-0.02 -0.08 -0.07 -0.01c0,-0.03 0,-0.03 0,-0.07 0.01,-0.01 0.03,-0.01 0.04,-0.02 0.07,-0.03 0.03,-0.04 0.18,-0.04 0.02,0.01 0.04,0.01 0.07,0l0.03 0c0.06,-0.02 0.03,0 0.07,-0.02 0.02,-0.02 -0.02,0 0.02,-0.02 0.04,-0.01 0.12,0 0.16,0 0.09,0 0.13,-0.05 0.24,0.02 0.03,0.02 0.05,0.05 0.06,0.09l0 0c0.03,0.01 0.01,0 0.04,0.01 -0.02,-0.02 -0.01,-0.01 -0.02,-0.02 -0.09,-0.1 -0.02,-0.03 -0.11,-0.11l-0.01 -0.01c-0.02,-0.01 -0.07,-0.01 -0.1,-0.01 -0.05,-0.02 -0.06,0 -0.1,0 -0.03,0 -0.06,-0.01 -0.1,-0.01 -0.05,0.01 -0.12,0.04 -0.17,0.05 -0.05,0.01 -0.27,0 -0.35,0.02 -0.02,0.01 -0.04,0.02 -0.03,0.03 -0.02,-0.03 -0.04,-0.03 -0.1,-0.02 -0.08,0.09 -0.03,0.17 -0.02,0.29 0.01,0.02 0.01,0.05 0.01,0.08 0,0.06 -0.01,0.01 -0.02,0.06 0,0.02 0.01,0.01 0,0.04 -0.02,0.08 -0.01,0 -0.01,0.11 -0.04,0.02 -0.05,-0.01 -0.06,0.06 0,0.15 -0.01,0.12 0.01,0.28z"/>
   <path class="fil3" d="M1.87 0.71l0 0c-0.07,-0.02 -0.05,-0.04 -0.06,-0.06 -0.02,-0.03 -0.1,-0.05 -0.15,-0.04 -0.02,0 -0.03,0 -0.04,0.01l-0.07 0.03c-0.05,0 0.01,-0.01 -0.04,0 -0.05,0 -0.04,0.01 -0.11,0.01 -0.05,-0.01 -0.11,0 -0.16,0.02 -0.03,0.01 -0.01,0 -0.03,0.03l-0.04 0.06c0.02,0.05 0.02,-0.02 0.01,0.05l0.07 0.01c-0.01,0.02 0.01,0 -0.01,0.01l-0.02 0.01c0,0 0,0 0,0.01l0.04 0c0,0.06 -0.01,0.03 -0.02,0.07 -0.01,0.01 0.01,0.01 -0.01,0.03 -0.02,0.01 -0.02,0 -0.05,0l0.02 0.04 -0.05 0.01c0.01,0.02 0.02,0.02 0.03,0.03l0.02 0.02c0.05,0.02 -0.02,0.03 0.11,0.04 0.02,0.02 0.01,0.01 0.01,0.04 0.09,0 0.2,0.03 0.28,-0.01 0.08,-0.04 0.06,-0.01 0.11,0 0.13,0.01 0.17,-0.01 0.25,-0.01l0 -0.01c-0.06,-0.06 -0.03,-0.05 -0.09,-0.05 -0.01,-0.06 0.02,-0.07 -0.01,-0.12 -0.01,-0.02 -0.02,0.02 -0.01,-0.03 0.02,-0.05 0,-0.06 0.05,-0.07 0.03,0 0.04,0.01 0.06,-0.01 0.03,-0.02 0.01,-0.02 -0.01,-0.03 0.03,0 0.04,0.01 0.05,-0.01 0.03,-0.06 -0.1,0.01 -0.13,-0.08z"/>
   <path class="fil1" d="M1.67 0.57c0.03,0 0.08,0 0.1,0.01l0.01 0.01c0.09,0.08 0.02,0.01 0.11,0.11 0.01,0.01 0,0 0.02,0.02l0 0.01c0.08,0.03 0.08,-0.01 0.1,-0.03 0.02,0.01 0.01,0.01 0.03,0.02 0.06,0.06 0.04,0.17 0.04,0.24 0,0.07 0.05,0.2 0.05,0.21l0.01 0.23c-0.01,0.07 -0.02,0.05 -0.02,0.13 0,0.05 -0.01,0.11 -0.01,0.16 0,0.03 -0.01,0.05 -0.01,0.08 -0.01,0.08 -0.05,0.06 -0.07,0.06l-0.01 -0.01c-0.03,-0.01 -0.01,-0.01 -0.05,-0.01 -0.01,0.02 -0.01,0.03 -0.02,0.04 -0.03,0 -0.03,-0.01 -0.06,0l-0.05 0.01c-0.05,-0.02 -0.01,-0.01 -0.03,-0.03 -0.02,-0.02 -0.03,-0.01 -0.04,-0.02l-0.03 -0.06c-0.03,-0.04 -0.04,-0.02 -0.04,-0.07l0 0c-0.03,-0.01 -0.07,-0.01 -0.05,0.03 0,0 0.01,0.01 0.01,0.02 0.02,0.03 0.01,0.02 0,0.04 0.04,0 0.05,0.01 0.07,0.06 -0.02,0.01 -0.04,0 -0.05,0.05 -0.01,0.01 -0.01,0 -0.01,0.02l-0.06 -0.01 0 -0.07 -0.03 0.02 -0.01 -0.02 -0.04 0.02c-0.02,0.01 0,0 -0.01,0.02 0,0 0,0 -0.01,0l-0.01 0.03c0,0.01 0,0.02 -0.01,0.03 -0.05,0.01 -0.07,-0.01 -0.1,-0.01 -0.02,-0.01 -0.04,0 -0.05,0 -0.03,0.02 -0.04,0.03 -0.04,0.03 0.06,0.01 0.05,0.02 0.09,0.04 0.04,0.02 0.07,0 0.12,0 0.03,0 0.09,0 0.13,0 0.08,-0.01 0.03,-0.02 0.12,-0.03l0.04 0.01c-0.03,-0.09 -0.05,-0.05 -0.06,-0.11 0.03,-0.01 0.01,-0.01 0.03,0 0.04,0.01 0.08,0.06 0.08,0.1 0.05,0 0.09,0 0.1,-0.05 0.03,0 0.04,0.01 0.04,0.03 0,0.05 -0.03,0 -0.02,0.08 0,0 0.01,0 0.01,0.01l0 0.01c0.01,0.03 0,0.05 0.01,0.11 0.01,0.05 0.01,0.05 -0.02,0.08 -0.01,0.11 -0.01,0.09 -0.04,0.18 -0.01,0 -0.01,0 -0.01,0 -0.01,0.04 0.01,0.02 -0.01,0.05l-0.01 0.04c-0.05,0.01 -0.03,-0.01 -0.05,0.03 -0.01,0.03 0.02,0 -0.03,0.05 0,0.02 0.02,0.02 0.03,0.04 -0.05,0.09 -0.07,0.05 -0.09,0.14l0.1 0c0,0 0,0 0,0l0 0.03c0.01,0.04 0,0.02 0.01,0.04 0,0.02 0.02,0.01 0,0.01 -0.01,0.03 0,0.01 -0.01,0.03 -0.01,0.03 0,0.01 -0.01,0.02 -0.02,0.01 -0.03,0 -0.06,0.03l0.02 0.08c0.01,0 0.01,0 0.01,0 0,0 0,0 0.01,0.01l0.02 -0.01c0,0 0,-0.01 0,-0.01 0.06,-0.03 0.05,0 0.08,-0.06l0.01 -0.01c0.01,-0.01 0.01,-0.01 0.01,-0.01 0.03,-0.05 0.13,0.02 0.15,0.01 0.1,-0.2 -0.03,-0.35 0,-0.48 0.03,0 -0.03,-0.02 -0.01,0l0.01 0c-0.03,-0.08 -0.06,0.01 -0.06,-0.12l0.01 -0.24c0.04,-0.17 0.06,-0.12 0.08,-0.17l-0.03 0c0,-0.06 0.02,-0.12 0.02,-0.19 0.02,-0.29 0.07,-0.23 0.02,-0.61 -0.01,-0.07 -0.01,-0.16 -0.02,-0.24 -0.01,-0.08 -0.04,-0.14 -0.06,-0.2 -0.08,-0.01 -0.07,0.02 -0.15,0.01 -0.01,-0.02 -0.01,-0.03 -0.01,-0.06 -0.03,0 -0.03,0 -0.05,-0.01 0,-0.03 0.02,-0.02 -0.01,-0.02 -0.02,-0.01 -0.08,-0.07 -0.15,-0.03 -0.03,0.01 -0.01,-0.01 -0.02,0.02z"/>
   <path class="fil4" d="M0.97 2.3c0.05,0 0.01,0 0.04,0.01 0,0 -0.02,0.01 0.04,0.02 0.03,0.01 0.07,0.01 0.1,0.04l0.02 0.02c0.01,0.01 0.02,0.02 0.04,0.03 0.03,0.03 0.04,0.02 0.1,0.03 0.01,0.03 -0.01,0.02 0.06,0.04 0.02,0.01 0.01,0.01 0.03,0.01 0.02,0 0.06,0 0.08,0 0.02,-0.01 0.03,-0.02 0.06,-0.02 0.07,-0.01 0.03,0.02 0.13,-0.02 0.04,-0.02 0.04,-0.06 0.1,-0.06 -0.01,0.03 -0.01,0.02 -0.01,0.05 0.06,-0.01 -0.01,-0.02 0.07,-0.02 0,0.06 0,0.01 -0.02,0.05 -0.03,0.04 -0.03,0.08 -0.08,0.11 0,0 -0.01,0.01 -0.01,0.01 -0.01,0.01 0.01,0 -0.01,0 -0.05,0.02 -0.04,0 -0.06,0.05 -0.13,0 -0.05,0.03 -0.26,0.02 -0.02,0 -0.03,-0.01 -0.05,-0.01 -0.02,-0.01 -0.04,-0.01 -0.06,-0.01 -0.05,-0.01 -0.02,-0.01 -0.04,-0.02 -0.03,-0.01 -0.04,-0.01 -0.06,-0.02 -0.03,-0.01 0,-0.01 -0.04,-0.02 -0.04,-0.01 -0.06,0.01 -0.11,-0.08 0,0 0,-0.01 0,-0.01l-0.04 -0.08c-0.03,-0.04 -0.02,-0.05 -0.02,-0.12zm0.92 0.1l-0.03 -0.01c0.01,-0.01 0.01,0.01 0.03,-0.03 0,-0.01 0,-0.01 0,-0.01l0 -0.01c0.02,-0.04 0.03,-0.03 0.01,-0.06 -0.05,0.01 -0.01,0 -0.03,0.03 -0.02,0.03 0,0.01 -0.05,0.03 -0.04,0.01 -0.04,0.03 -0.08,0.03 -0.18,0.09 -0.04,0.04 -0.23,0.08 -0.04,0 -0.13,0.04 -0.18,-0.02 -0.03,-0.04 -0.01,-0.02 -0.05,-0.03 -0.01,-0.03 0.01,-0.03 -0.01,-0.04 -0.01,-0.01 -0.03,-0.01 -0.04,-0.02 -0.01,-0.05 0.01,-0.08 -0.05,-0.08l0.01 -0.02c0.02,-0.04 0,0.01 -0.01,-0.04 -0.08,-0.01 -0.05,-0.01 -0.07,-0.05 -0.04,0 -0.02,0.01 -0.06,0l-0.01 -0.01c-0.05,-0.02 -0.01,0.01 -0.06,-0.02 -0.02,-0.01 -0.02,-0.01 -0.05,-0.01 0.02,-0.04 0,0.01 0.02,-0.03 -0.08,-0.01 0,-0.05 -0.1,-0.02 0,0.06 0,0.06 0.01,0.09 0.02,0.05 0.01,0.06 0.03,0.1 0.01,0.03 0.01,0.06 0.01,0.09 0,0.01 0,0.03 0.01,0.05l0.02 0.05c0.03,0.03 0.11,0.13 0.11,0.16 0.01,0.01 0,0 0.01,0.02 0,0.02 0,0.01 0.02,0.03 0.02,0.02 0.02,0.07 0.08,0.12 0,0.01 0,0.01 0.01,0.01l0.01 0.01c0.06,0.04 0.07,0.05 0.09,0.06 0.06,0.05 0.17,0.07 0.26,0.03 0.02,0 0.03,-0.01 0.05,-0.02 0.04,-0.02 0.03,0 0.05,-0.02 0.05,-0.04 0.06,0 0.08,-0.05l0.02 -0.04c0,-0.02 0,-0.01 0.01,-0.03 0.04,-0.05 0.03,-0.02 0.04,-0.09 0.01,-0.05 0,0.01 0.03,-0.06 0,-0.02 0,-0.02 0.01,-0.03 0.02,-0.04 0.03,-0.06 0.07,-0.06 -0.03,-0.09 0,0 0.01,-0.08z"/>
   <path class="fil5" d="M1.58 1.17c0.06,-0.03 0.29,-0.04 0.37,-0.02 0.04,0 0.04,0 0.07,0 0.03,0.01 0.03,0.01 0.05,0.03 -0.01,-0.04 0.01,-0.06 0,-0.1 -0.01,-0.06 -0.01,-0.04 -0.04,-0.07 0.05,-0.02 0.04,-0.17 0.03,-0.19 -0.01,-0.03 -0.03,-0.07 -0.05,-0.07 -0.02,-0.01 -0.03,0 -0.05,0 -0.04,0 -0.04,-0.01 -0.05,-0.02l0 -0.01c-0.03,-0.01 -0.01,0 -0.04,-0.01 0.03,0.09 0.16,0.02 0.13,0.08 -0.01,0.02 -0.02,0.01 -0.05,0.01 0.02,0.01 0.04,0.01 0.01,0.03 -0.02,0.02 -0.03,0.01 -0.06,0.01 -0.05,0.01 -0.03,0.02 -0.05,0.07 -0.01,0.05 0,0.01 0.01,0.03 0.03,0.05 0,0.06 0.01,0.12 0.06,0 0.03,-0.01 0.09,0.05l0 0.01c-0.08,0 -0.12,0.02 -0.25,0.01 -0.05,-0.01 -0.03,-0.04 -0.11,0 -0.08,0.04 -0.19,0.01 -0.28,0.01 0,-0.03 0.01,-0.02 -0.01,-0.04 -0.13,-0.01 -0.06,-0.02 -0.11,-0.04l-0.02 -0.02c-0.01,-0.01 -0.02,-0.01 -0.03,-0.03l0.05 -0.01 -0.02 -0.04c0.03,0 0.03,0.01 0.05,0 0.02,-0.02 0,-0.02 0.01,-0.03 0.01,-0.04 0.02,-0.01 0.02,-0.07l-0.04 0c0,-0.01 0,-0.01 0,-0.01l0.02 -0.01c0.02,-0.01 0,0.01 0.01,-0.01l-0.07 -0.01c0.01,-0.07 0.01,0 -0.01,-0.05l0.04 -0.06c0.02,-0.03 0,-0.02 0.03,-0.03 0.05,-0.02 0.11,-0.03 0.16,-0.02 0.07,0 0.06,-0.01 0.11,-0.01 0.05,-0.01 -0.01,0 0.04,0l0.07 -0.03c0.01,-0.01 0.02,-0.01 0.04,-0.01 0.05,-0.01 0.13,0.01 0.15,0.04 0.01,0.02 -0.01,0.04 0.06,0.06 -0.01,-0.04 -0.03,-0.07 -0.06,-0.09 -0.11,-0.07 -0.15,-0.02 -0.24,-0.02 -0.04,0 -0.12,-0.01 -0.16,0 -0.04,0.02 0,0 -0.02,0.02 -0.04,0.02 -0.01,0 -0.07,0.02l-0.03 0c-0.03,0.01 -0.05,0.01 -0.07,0 -0.15,0 -0.11,0.01 -0.18,0.04 -0.01,0.01 -0.03,0.01 -0.04,0.02 0,0.04 0,0.04 0,0.07l0.07 0.01 0.02 0.08c0,0.02 0.01,0.02 0.01,0.02 0.02,0.03 0.01,0.04 0.03,0.06 -0.02,-0.01 -0.02,0.01 -0.02,0.02 -0.01,0.04 0.02,0.02 0,0.02 -0.01,0.05 -0.03,-0.01 -0.03,0.09 -0.04,0 -0.05,0 -0.08,0.02 -0.08,0.03 -0.06,0.01 -0.07,0.03 0.06,0.04 0.3,0.02 0.35,0.03 0.02,0 0,0 0.01,0.01 0,0 0.02,0 0.02,0 0.04,0.01 0.07,0.03 0.11,0.03 0.05,-0.01 0.11,-0.01 0.16,-0.02z"/>
   <path class="fil2" d="M1.91 0.73c0.01,0.01 0.01,0.02 0.05,0.02 0.02,0 0.03,-0.01 0.05,0 0.02,0 0.04,0.04 0.05,0.07 0.01,0.02 0.02,0.17 -0.03,0.19 0.03,0.03 0.03,0.01 0.04,0.07 0.01,0.04 -0.01,0.06 0,0.1 -0.02,-0.02 -0.02,-0.02 -0.05,-0.03 -0.03,0 -0.03,0 -0.07,0 -0.08,-0.02 -0.31,-0.01 -0.37,0.02l0.04 0c0.16,0.01 0.39,-0.08 0.43,0.09l0 0.07c-0.02,0.03 -0.04,0.05 -0.08,0.07l-0.21 0.04c-0.06,0 -0.14,0.02 -0.22,-0.02 -0.02,-0.06 -0.01,-0.08 -0.02,-0.14l-0.03 -0.02c0.03,0.04 0.01,0.05 0.02,0.1 0,0.05 0.02,0.05 0.02,0.1 0,0.06 0,0.06 0.01,0.1 0.01,0.04 0.02,0.06 0.01,0.1l-0.01 0.01c0,0 0,0 0,0.01l-0.03 0.03c0.04,-0.01 0.05,-0.01 0.06,0.02 0.03,0.02 0.02,0.01 0.05,0.03 -0.01,0.04 -0.03,0.05 -0.05,0.06l0.01 0.02 0.03 -0.02 0 0.07 0.06 0.01c0,-0.02 0,-0.01 0.01,-0.02 0.01,-0.05 0.03,-0.04 0.05,-0.05 -0.02,-0.05 -0.03,-0.06 -0.07,-0.06 0.01,-0.02 0.02,-0.01 0,-0.04 0,-0.01 -0.01,-0.02 -0.01,-0.02 -0.02,-0.04 0.02,-0.04 0.05,-0.03 -0.05,-0.09 -0.05,0.01 -0.07,-0.15l-0.04 -0.01c0.07,0 0,-0.02 0.05,-0.03 0.03,-0.01 0.02,0.02 0.07,0.01 0.05,-0.01 0.11,-0.01 0.17,-0.01 0.01,-0.01 0.01,-0.01 0.01,-0.01 0.05,-0.06 0.09,-0.02 0.12,-0.01 0.01,0 0.03,0 0.05,0 0,0.02 0.02,0.03 -0.03,0.02l0.01 0.03c0,0 0.01,0 0.01,0 0.02,0.05 0.01,0.02 0.01,0.06 0.01,0.03 0.02,0.01 0.01,0.04l0 0.02c0,0 0,0 0,0l-0.01 0.02c0,0 -0.01,0.01 -0.01,0.01 0.02,0.01 0.02,0.01 0.02,0.03 0,0.01 0,-0.01 -0.01,0.03l-0.06 0c-0.02,0.04 0.02,0.03 -0.02,0.03 -0.05,0.01 -0.01,0 -0.04,-0.01 -0.02,0 -0.07,0.01 -0.09,0.01 -0.05,0.01 -0.04,-0.01 -0.08,-0.04 0,0 0,0 0,0 -0.05,-0.03 -0.01,-0.02 -0.07,-0.04 0,0.05 0.01,0.03 0.04,0.07l0.03 0.06c0.01,0.01 0.02,0 0.04,0.02 0.02,0.02 -0.02,0.01 0.03,0.03l0.05 -0.01c0.03,-0.01 0.03,0 0.06,0 0.01,-0.01 0.01,-0.02 0.02,-0.04 0.04,0 0.02,0 0.05,0.01l0.01 0.01c0.02,0 0.06,0.02 0.07,-0.06 0,-0.03 0.01,-0.05 0.01,-0.08 0,-0.05 0.01,-0.11 0.01,-0.16 0,-0.08 0.01,-0.06 0.02,-0.13l-0.01 -0.23c0,-0.01 -0.05,-0.14 -0.05,-0.21 0,-0.07 0.02,-0.18 -0.04,-0.24 -0.02,-0.01 -0.01,-0.01 -0.03,-0.02 -0.02,0.02 -0.02,0.06 -0.1,0.03z"/>
   <path class="fil6" d="M1.21 2.42c-0.02,-0.01 -0.03,-0.02 -0.04,-0.03l-0.02 -0.02c-0.03,-0.03 -0.07,-0.03 -0.1,-0.04 -0.06,-0.01 -0.04,-0.02 -0.04,-0.02 -0.03,-0.01 0.01,-0.01 -0.04,-0.01 0,0.07 -0.01,0.08 0.02,0.12l0.04 0.08c0,0 0,0.01 0,0.01 0.05,0.09 0.07,0.07 0.11,0.08 0.04,0.01 0.01,0.01 0.04,0.02 0.02,0.01 0.03,0.01 0.06,0.02 0.02,0.01 -0.01,0.01 0.04,0.02 0.02,0 0.04,0 0.06,0.01 0.02,0 0.03,0.01 0.05,0.01 0.21,0.01 0.13,-0.02 0.26,-0.02 0.02,-0.05 0.01,-0.03 0.06,-0.05 0.02,0 0,0.01 0.01,0 0,0 0.01,-0.01 0.01,-0.01 0.05,-0.03 0.05,-0.07 0.08,-0.11 0.02,-0.04 0.02,0.01 0.02,-0.05 -0.08,0 -0.01,0.01 -0.07,0.02 0,-0.03 0,-0.02 0.01,-0.05 -0.06,0 -0.06,0.04 -0.1,0.06 -0.1,0.04 -0.06,0.01 -0.13,0.02 -0.03,0 -0.04,0.01 -0.06,0.02 -0.02,0 -0.06,0 -0.08,0 -0.02,0 -0.01,0 -0.03,-0.01 -0.07,-0.02 -0.05,-0.01 -0.06,-0.04 -0.06,-0.01 -0.07,0 -0.1,-0.03z"/>
   <path class="fil2" d="M1.31 2.05l0.02 0.02c0.05,0.05 0.21,0 0.23,0.03 0.01,0.02 -0.01,-0.04 0,0.01 0.01,0.03 0,0 0.01,0.02l0.06 0.01c-0.02,0.06 -0.03,0.05 -0.16,0.09 -0.1,0.02 -0.1,-0.04 -0.19,0.02l-0.01 0.06c0.05,0.03 0.02,-0.01 0.05,0.05 0,0 0,0.01 0,0.01 0.04,0.08 0.13,0.04 0.22,0.05 0.06,0 0.09,-0.01 0.12,-0.06 0.01,-0.01 0,-0.01 0.01,-0.02 0.03,-0.02 0.02,0 0.06,-0.02 0.03,-0.02 0,-0.02 0.05,-0.02 0,-0.05 -0.01,-0.05 0.03,-0.06 -0.03,-0.03 -0.02,-0.09 -0.02,-0.17 -0.02,-0.02 -0.04,-0.04 -0.08,-0.04 -0.02,0 -0.04,0.01 -0.06,0.01 -0.03,0 -0.04,-0.01 -0.07,-0.01 -0.03,-0.01 -0.09,0.01 -0.12,0.01 -0.06,0.01 -0.1,-0.01 -0.15,0.01z"/>
   <path class="fil3" d="M1.7 1.68l0 0c0.06,0.02 0.02,0.01 0.07,0.04 0,0 0,0 0,0 0.04,0.03 0.03,0.05 0.08,0.04 0.02,0 0.07,-0.01 0.09,-0.01 0.03,0.01 -0.01,0.02 0.04,0.01 0.04,0 0,0.01 0.02,-0.03l0.06 0c0.01,-0.04 0.01,-0.02 0.01,-0.03 0,-0.02 0,-0.02 -0.02,-0.03 0,0 0.01,-0.01 0.01,-0.01l0.01 -0.02c0,0 0,0 0,0l0 -0.02c0.01,-0.03 0,-0.01 -0.01,-0.04 0,-0.04 0.01,-0.01 -0.01,-0.06 0,0 -0.01,0 -0.01,0l-0.01 -0.03c0.05,0.01 0.03,0 0.03,-0.02 -0.02,0 -0.04,0 -0.05,0 -0.03,-0.01 -0.07,-0.05 -0.12,0.01 0,0 0,0 -0.01,0.01 -0.06,0 -0.12,0 -0.17,0.01 -0.05,0.01 -0.04,-0.02 -0.07,-0.01 -0.05,0.01 0.02,0.03 -0.05,0.03l0.04 0.01c0.02,0.16 0.02,0.06 0.07,0.15z"/>
   <path class="fil7" d="M0.72 1.14c-0.03,0.03 -0.03,0.12 -0.03,0.16 -0.02,0.12 0,0.14 0.01,0.2 0,0.04 -0.01,0.03 0,0.06l0.06 0.32c-0.04,-0.02 0,-0.02 -0.06,-0.04 0,0 0.01,0 0.01,0.01 0,0.01 0,0 0.01,0.01 0.01,0.02 0,0 0.01,0.02 0.01,0.01 0.01,0.02 0.03,0.03 0.05,0.02 0.01,0.01 0.03,0 0,-0.13 -0.05,-0.22 -0.06,-0.35 -0.02,-0.16 -0.01,-0.13 -0.01,-0.28 0.01,-0.07 0.02,-0.04 0.06,-0.06 0,-0.11 -0.01,-0.03 0.01,-0.11 0.01,-0.03 0,-0.02 0,-0.04 0.01,-0.05 0.02,0 0.02,-0.06 0,-0.03 0,-0.06 -0.01,-0.08 -0.01,-0.12 -0.06,-0.2 0.02,-0.29 0.06,-0.01 0.08,-0.01 0.1,0.02 -0.01,-0.01 0.01,-0.02 0.03,-0.03 0.08,-0.02 0.3,-0.01 0.35,-0.02 0.05,-0.01 0.12,-0.04 0.17,-0.05 0.04,0 0.07,0.01 0.1,0.01 0.04,0 0.05,-0.02 0.1,0 0.01,-0.03 -0.01,-0.01 0.02,-0.02 0.07,-0.04 0.13,0.02 0.15,0.03 -0.03,-0.08 -0.11,-0.06 -0.16,-0.06 -0.08,0.01 -0.16,0 -0.23,0.01 -0.11,0.02 -0.08,0.05 -0.2,0.05l-0.21 0.01c-0.13,0.02 -0.25,-0.08 -0.29,0.16 -0.02,0.1 0.02,0.12 0.01,0.21l-0.01 0.15c-0.01,0.04 0.01,0.03 -0.03,0.03z"/>
   <path class="fil3" d="M0.88 1.51c0.01,0.04 0.01,0.01 -0.02,0.05l0.02 0.04c0.01,0.06 0,0.04 0.04,0.09 0.04,0.07 0,0.05 0.06,0.1l0.05 0.03c0.03,-0.01 0.02,-0.02 0.06,-0.02 0,-0.02 0,-0.01 0.01,-0.03 0,-0.03 0,-0.02 0,-0.02l0.04 -0.05c0.03,-0.04 0.01,-0.02 0.05,-0.05 0.05,-0.02 0.05,-0.11 0.04,-0.16 -0.04,-0.02 -0.1,0 -0.16,0 -0.08,-0.01 -0.03,0.01 -0.15,0.01 -0.01,0 -0.02,0 -0.04,0.01z"/>
   <path class="fil0" d="M2.14 1.1c0.05,0.38 0,0.32 -0.02,0.61 0,0.07 -0.02,0.13 -0.02,0.19l0.03 0c0.01,-0.03 0,-0.01 0.02,-0.03 0.01,-0.01 0.01,-0.02 0.02,-0.03 0.02,-0.07 0.02,-0.21 0.02,-0.29 0.01,-0.04 0.02,-0.06 0.03,-0.08 0,-0.03 -0.01,-0.08 0,-0.1 0.01,-0.04 0.04,0 0.06,-0.04 0.02,-0.07 -0.05,-0.12 0.04,-0.16 0.03,-0.06 0,-0.14 0,-0.21 0.01,-0.04 0.02,-0.05 0.03,-0.08 0.02,-0.04 0,-0.06 0,-0.11l0 0 -0.05 -0.11c-0.01,-0.05 0.01,-0.07 -0.02,-0.12 -0.03,-0.06 -0.05,-0.03 -0.08,-0.08 -0.04,-0.08 0,-0.05 0,-0.11l-0.09 -0.06c0.01,0.03 0.02,0.03 0.03,0.05 0.01,0.04 0.03,0.1 0.04,0.15 0,0 0.03,0.03 0.04,0.03 0.02,0.02 0.02,0.01 0.05,0.02 0.03,0.12 0.02,0.08 -0.02,0.16 -0.03,0.05 0.01,0.01 0.02,0.14 -0.03,0 0.05,0 0.03,0.09 -0.02,0.06 -0.01,0 0.01,0.08 0.01,0.1 -0.02,0.09 -0.03,0.12 -0.02,0.03 -0.01,0.03 -0.02,0.07 -0.01,0.03 -0.01,0 -0.02,0.05 -0.01,0.08 0.01,0.06 -0.05,0.1 -0.01,-0.04 -0.02,-0.08 -0.02,-0.13 0,-0.05 0.01,-0.11 -0.03,-0.12z"/>
   <path class="fil4" d="M0.91 1.19c0.07,-0.01 0.07,-0.01 0.14,-0.01 0.11,0.01 0.14,-0.03 0.24,0.04 0.03,0.03 0.03,0.04 0.03,0.1 -0.05,0.03 -0.01,-0.01 -0.04,0.05l-0.04 0c-0.01,0 -0.01,-0.01 -0.01,-0.01 0,-0.03 0.01,-0.05 -0.05,-0.04l0 0.04c-0.16,0.01 -0.09,-0.02 -0.13,-0.02 -0.02,0 -0.01,0.01 -0.04,0.03l-0.04 0.01c0,0 0,0 0,0 -0.02,0 -0.03,-0.01 -0.03,-0.02 -0.01,-0.06 0.17,-0.08 0.17,-0.08 0.02,-0.02 -0.03,-0.01 0.02,-0.02l-0.05 -0.02c0,0 -0.01,0 -0.01,0 0,0 0,0 0,0 -0.05,0 -0.1,-0.01 -0.15,0.01l-0.03 0.01c-0.01,0 -0.01,0.01 -0.02,0 -0.02,-0.01 -0.01,-0.03 0,-0.05 -0.02,0.01 -0.02,0 -0.03,0.01l0 0.14c0.03,0.04 0,0 0.03,0.02 0,0 0,0.01 0,0.01 0.06,0.06 0.13,0.03 0.19,0.06 0.03,0.01 0.24,0.01 0.28,0.01 0.03,-0.04 0.03,-0.07 0.03,-0.12 0,-0.13 0.01,-0.06 0.02,-0.12 -0.05,-0.03 -0.16,-0.06 -0.22,-0.06 -0.11,0.01 -0.24,-0.01 -0.26,0.03z"/>
   <path class="fil7" d="M0.7 1.86c0.02,0.01 0.01,0 0.03,0.02 -0.01,-0.02 0,0 -0.01,-0.02 -0.01,-0.01 -0.01,0 -0.01,-0.01 0,-0.01 -0.01,-0.01 -0.01,-0.01 -0.02,-0.04 -0.03,-0.05 -0.03,-0.1 0,-0.11 -0.02,-0.18 -0.03,-0.25 0,-0.04 0.01,-0.08 0,-0.12 -0.02,-0.05 -0.04,-0.05 -0.05,-0.1 0,-0.04 0,-0.09 -0.01,-0.13 0,-0.02 -0.02,-0.07 -0.03,-0.1l0 -0.13 -0.03 0.08c0,0.03 0.01,0.09 0.02,0.11 0.04,0.11 0.02,0.12 0,0.24 0,0.04 0.01,0.21 0.02,0.25l0.07 0.2c0.02,0.03 0.04,0.05 0.07,0.07z"/>
   <path class="fil6" d="M0.72 1.14c0.04,0 0.02,0.01 0.03,-0.03l0.01 -0.15c0.01,-0.09 -0.03,-0.11 -0.01,-0.21 0.04,-0.24 0.16,-0.14 0.29,-0.16l0.21 -0.01c0.12,0 0.09,-0.03 0.2,-0.05 0.07,-0.01 0.15,0 0.23,-0.01 0.05,0 0.13,-0.02 0.16,0.06 0.03,0 0.01,-0.01 0.01,0.02 0.02,0.01 0.02,0.01 0.05,0.01 0,0.03 0,0.04 0.01,0.06 0.08,0.01 0.07,-0.02 0.15,-0.01 0,-0.03 0,-0.03 -0.02,-0.05l-0.04 -0.02c-0.03,0.02 0.01,0.02 -0.03,0.04l0 -0.02c0,0 0,0 -0.01,0 -0.01,-0.1 0,-0.09 -0.1,-0.08 -0.05,-0.04 -0.01,-0.04 -0.1,-0.04 -0.05,0 -0.1,0 -0.15,0 -0.11,0.01 -0.15,-0.01 -0.25,0.03 -0.05,0.02 -0.05,0.04 -0.11,0.04 -0.09,-0.01 -0.28,0.03 -0.36,0 -0.04,-0.02 -0.03,-0.07 -0.09,0.02 -0.04,0.07 -0.07,0.11 -0.09,0.21 0,0.03 0,0.05 0,0.09 0.01,0.04 0.02,0.04 0.02,0.07 0.01,0.06 0,0.15 -0.01,0.19z"/>
   <path class="fil4" d="M1.79 1.26c0.05,0 0.09,0.01 0.13,0.02 0.04,0.02 0.07,0.03 0.06,0.08 -0.01,0.01 0,0.01 -0.02,0.01 -0.02,0.01 -0.02,0.01 -0.05,0 -0.03,-0.01 -0.03,-0.02 -0.07,-0.02 -0.01,0 -0.04,0.01 -0.06,0.01 -0.13,0 -0.04,0 -0.02,0.06 -0.05,0 -0.11,0.01 -0.17,-0.02 0,0 0,0 0,0l-0.02 -0.01c0,0 -0.01,0 -0.02,0 0.02,-0.03 0.01,-0.01 0,-0.03 0,-0.03 -0.02,-0.12 -0.01,-0.14 0.04,-0.02 0.07,-0.04 0.13,-0.04 0.04,0 0.06,0 0.1,-0.01 0.04,0 0.06,0.01 0.1,0.01 0.06,0 0.15,-0.01 0.15,0.07 -0.08,0 -0.13,-0.02 -0.23,-0.01l0 0.02zm-0.17 -0.09c-0.04,0.03 -0.11,0.02 -0.14,0.03 -0.03,0 -0.02,-0.01 -0.03,0.02 -0.02,0.07 0.05,0 0.07,0.06 0.01,0.06 0,0.08 0.02,0.14 0.08,0.04 0.16,0.02 0.22,0.02l0.21 -0.04c0.04,-0.02 0.06,-0.04 0.08,-0.07l0 -0.07c-0.04,-0.17 -0.27,-0.08 -0.43,-0.09z"/>
   <path class="fil8" d="M1.51 1.71l0.03 -0.03c0,-0.01 0,-0.01 0,-0.01l0.01 -0.01c0.01,-0.04 0,-0.06 -0.01,-0.1 -0.01,-0.04 -0.01,-0.04 -0.01,-0.1 0,-0.05 -0.02,-0.05 -0.02,-0.1 -0.01,-0.05 0.01,-0.06 -0.02,-0.1 -0.08,0.01 -0.05,0 -0.1,0.02 0,0.04 0.01,0.06 0.01,0.11 0,0.06 0.01,0.03 0.03,0.07 -0.01,0.03 0.01,-0.01 -0.01,0.02 -0.01,0.02 0.03,0.08 0.03,0.12 -0.11,0.07 -0.07,0.05 -0.07,0.12 0.08,0 0.07,0 0.13,-0.01z"/>
   <path class="fil7" d="M1.76 1.95c-0.09,0.01 -0.04,0.02 -0.12,0.03 -0.04,0 -0.1,0 -0.13,0 -0.01,0.02 -0.01,0.04 -0.1,0.02 0,0 -0.02,-0.01 -0.03,-0.01l-0.02 -0.01c-0.06,-0.02 -0.11,0 -0.15,-0.01 -0.02,0 -0.03,-0.03 -0.07,-0.05 0.01,-0.03 0,-0.02 0.02,-0.02 -0.04,0 0,0.01 -0.04,0 -0.02,-0.01 -0.02,-0.01 -0.04,-0.01 -0.01,0 -0.02,0 -0.03,0.01 -0.02,0.02 0.01,0.01 -0.03,0.03 0,0.01 0.01,0.06 0.01,0.06 0.01,0.01 0.01,0.02 0.04,0.02 0.15,0.01 0.01,0.03 0.39,0.02 -0.03,-0.05 0.03,0.04 -0.02,-0.02 -0.01,-0.02 -0.01,0.01 0,-0.01 0.01,0 0.03,-0.01 0.05,0 0.02,0.01 0,0 0.01,0.01l0.01 0.02c0.08,-0.02 0.08,-0.01 0.15,0 0.04,0 0.08,-0.02 0.14,-0.01 0.01,-0.04 -0.02,-0.02 -0.04,-0.07z"/>
   <path class="fil7" d="M2.17 1.84c0.03,-0.02 0.06,-0.06 0.06,-0.12 0,-0.05 0.01,-0.03 0.02,-0.09 0.05,-0.03 0.01,-0.02 0.04,-0.09 0.03,-0.11 0.02,-0.11 0.01,-0.26 -0.01,-0.1 -0.02,-0.03 0.02,-0.11 -0.09,0.04 -0.02,0.09 -0.04,0.16 -0.02,0.04 -0.05,0 -0.06,0.04 -0.01,0.02 0,0.07 0,0.1 -0.01,0.02 -0.02,0.04 -0.03,0.08 0,0.08 0,0.22 -0.02,0.29z"/>
   <path class="fil7" d="M1.79 1.26c0.02,0.01 0.07,0.02 0.09,0.03 0.07,0.03 0.06,0.03 0.07,0.05 -0.07,0.04 -0.08,-0.06 -0.13,-0.01l-0.06 0.01c-0.12,0 -0.02,0.03 -0.15,0.01 -0.02,-0.03 -0.03,-0.08 -0.04,-0.11 0.02,-0.01 0.04,-0.02 0.05,-0.03l0.05 -0.03c-0.06,0 -0.09,0.02 -0.13,0.04 -0.01,0.02 0.01,0.11 0.01,0.14 0.01,0.02 0.02,0 0,0.03 0.01,0 0.02,0 0.02,0l0.02 0.01c0,0 0,0 0,0 0.06,0.03 0.12,0.02 0.17,0.02 -0.02,-0.06 -0.11,-0.06 0.02,-0.06 0.02,0 0.05,-0.01 0.06,-0.01 0.04,0 0.04,0.01 0.07,0.02 0.03,0.01 0.03,0.01 0.05,0 0.02,0 0.01,0 0.02,-0.01 0.01,-0.05 -0.02,-0.06 -0.06,-0.08 -0.04,-0.01 -0.08,-0.02 -0.13,-0.02z"/>
   <path class="fil9" d="M1.67 1.18l-0.05 0.03c-0.01,0.01 -0.03,0.02 -0.05,0.03 0.01,0.03 0.02,0.08 0.04,0.11 0.13,0.02 0.03,-0.01 0.15,-0.01l0.06 -0.01 -0.1 0c-0.01,-0.07 0,-0.01 -0.03,-0.05l0 -0.02c-0.04,0 -0.03,0 -0.06,-0.01 0.01,-0.04 0,-0.05 0.09,-0.06 0.06,0 0.09,0 0.13,0.01l-0.03 0.02c-0.03,0.01 -0.01,-0.01 -0.03,0.02 0.1,-0.01 0.15,0.01 0.23,0.01 0,-0.08 -0.09,-0.07 -0.15,-0.07 -0.04,0 -0.06,-0.01 -0.1,-0.01 -0.04,0.01 -0.06,0.01 -0.1,0.01z"/>
   <path class="fil0" d="M1.82 1.33c0.05,-0.05 0.06,0.05 0.13,0.01 -0.01,-0.02 0,-0.02 -0.07,-0.05 -0.02,-0.01 -0.07,-0.02 -0.09,-0.03l0 -0.02c0.02,-0.03 0,-0.01 0.03,-0.02l0.03 -0.02c-0.04,-0.01 -0.07,-0.01 -0.13,-0.01 -0.09,0.01 -0.08,0.02 -0.09,0.06 0.03,0.01 -0.04,0.05 0,0.05l0 0.02c0.02,0.04 0.08,-0.06 0.09,0.01l0.1 0z"/>
   <path class="fil7" d="M1.74 2.37c0.04,0 0.04,-0.02 0.08,-0.03 0.05,-0.02 0.03,0 0.05,-0.03 0.02,-0.03 -0.02,-0.02 0.03,-0.03 0.02,0.03 0.01,0.02 -0.01,0.06l0 0.01c0,0 0,0 0,0.01 -0.02,0.04 -0.02,0.02 -0.03,0.03l0.03 0.01c0.06,-0.11 0.03,-0.06 0.06,-0.14 0.01,-0.03 0.01,0 0.02,-0.04 0.03,-0.03 0.03,-0.03 0.02,-0.08 -0.02,0 -0.02,-0.01 -0.04,0.01 0,0 -0.01,0 -0.01,0 -0.02,0.02 -0.02,0.06 -0.08,0.04 0,0.04 -0.01,0.03 0.02,0.05l-0.05 0c0,0.13 -0.08,0.03 -0.09,0.13z"/>
   <path class="fil9" d="M0.91 1.19l0 0.01c0.06,-0.01 0.13,0 0.19,0 0.07,0 0.13,-0.02 0.14,0.04 -0.05,0.04 -0.11,0 -0.17,0 0,0 0,0 0,0 0,0 0.01,0 0.01,0l0.05 0.02c-0.05,0.01 0,0 -0.02,0.02l0.08 -0.01 -0.01 0.05c0.06,-0.01 0.05,0.01 0.05,0.04 0,0 0,0.01 0.01,0.01l0.04 0c0.03,-0.06 -0.01,-0.02 0.04,-0.05 0,-0.06 0,-0.07 -0.03,-0.1 -0.1,-0.07 -0.13,-0.03 -0.24,-0.04 -0.07,0 -0.07,0 -0.14,0.01z"/>
   <path class="fil1" d="M1.27 3.82l0.09 0c0.01,-0.06 0.02,-0.07 0.04,-0.11 0.02,-0.04 0.04,-0.06 0.05,-0.1 -0.02,0.01 -0.01,0.01 -0.06,0.06l-0.01 0.01c-0.03,0.03 0.02,0.07 -0.07,0.04l-0.02 -0.08c-0.06,0 -0.01,-0.03 -0.07,-0.07 0.02,0.1 0.04,0.13 0.05,0.25z"/>
   <path class="fil9" d="M0.87 1.21c-0.01,0.02 -0.02,0.04 0,0.05 0.01,0.01 0.01,0 0.02,0l0.03 -0.01c0.05,-0.02 0.1,-0.01 0.15,-0.01 0.06,0 0.12,0.04 0.17,0 -0.01,-0.06 -0.07,-0.04 -0.14,-0.04 -0.06,0 -0.13,-0.01 -0.19,0 -0.02,0 -0.02,0.01 -0.04,0.01z"/>
   <path class="fil0" d="M1.3 1.33l-0.11 -0.06 -0.08 0.01c0,0 -0.18,0.02 -0.17,0.08 0,0.01 0.01,0.02 0.03,0.02 0,0 0,0 0,0l0.04 -0.01c0.03,-0.02 0.02,-0.03 0.04,-0.03 0.04,0 -0.03,0.03 0.13,0.02l0.12 -0.03z"/>
   <path class="fil10" d="M2.38 3.82l0.42 0 0 -0.04c-0.03,0 -0.07,0.01 -0.11,0.01 -0.03,0 -0.08,0 -0.11,0.01 -0.05,0 -0.16,0 -0.2,0.02z"/>
   <path class="fil6" d="M1.25 1.75c0,0.07 0.08,0.06 0.14,0.06 -0.01,-0.08 -0.07,-0.09 -0.14,-0.06z"/>
   <path class="fil6" d="M1.63 1.77c-0.03,-0.06 -0.1,-0.02 -0.15,0 0.04,0.07 0.1,0.06 0.15,0z"/>
   <path class="fil0" d="M1.61 3.42c-0.01,0.01 -0.01,0.01 -0.02,0.02l-0.03 0.02 0 0.01 -0.05 0.08c-0.02,0.02 -0.04,0.03 -0.06,0.06 -0.01,0.04 -0.03,0.06 -0.05,0.1 -0.02,0.04 -0.03,0.05 -0.04,0.11l1.02 0c0.04,-0.02 0.15,-0.02 0.2,-0.02 0.03,-0.01 0.08,-0.01 0.11,-0.01 0.04,0 0.08,-0.01 0.11,-0.01l0 -0.94c-0.03,0 -0.16,-0.07 -0.19,-0.09 -0.03,-0.01 -0.07,-0.03 -0.1,-0.04 -0.2,-0.06 -0.08,-0.03 -0.19,-0.1 -0.03,-0.02 -0.04,-0.03 -0.07,-0.06 -0.07,-0.05 -0.15,-0.09 -0.15,-0.12l-0.01 0 -0.02 0c-0.02,0.13 0,0.23 -0.02,0.36l-0.04 0.13c-0.02,0.04 -0.04,0.06 -0.07,0.1 -0.08,0.08 -0.15,0.22 -0.28,0.36 -0.02,0.02 -0.03,0.02 -0.05,0.04z"/>
   <path class="fil0" d="M0.28 2.63c-0.03,0.03 -0.24,0.08 -0.27,0.12 -0.03,0.04 0.01,0.63 0,0.67 0,0.03 0,0.08 0,0.13 0,0.09 0,0.18 0,0.27l1.26 0c-0.01,-0.12 -0.03,-0.15 -0.05,-0.25l-0.07 -0.14c-0.02,-0.01 -0.07,-0.08 -0.09,-0.1 -0.08,-0.11 -0.03,-0.08 -0.16,-0.22l-0.1 -0.14c-0.01,0 -0.02,-0.03 -0.02,-0.03 -0.01,-0.01 0,0.01 -0.01,-0.02 -0.02,-0.05 -0.01,-0.17 -0.01,-0.24 -0.01,-0.08 -0.02,-0.1 0.01,-0.17 0.02,-0.04 0.02,-0.13 0.01,-0.18l-0.03 -0.01c-0.09,0.03 -0.12,0.12 -0.22,0.17 -0.12,0.06 -0.09,0.12 -0.25,0.14z"/>
  </g>
 </g>
</svg>
