<?xml version="1.0" encoding="UTF-8"?>
<!DOCTYPE svg PUBLIC "-//W3C//DTD SVG 1.1//EN" "http://www.w3.org/Graphics/SVG/1.1/DTD/svg11.dtd">
<!-- Creator: CorelDRAW 2020 (64 Bit) -->
<svg xmlns="http://www.w3.org/2000/svg" xml:space="preserve" width="235px" height="222px" version="1.1" style="shape-rendering:geometricPrecision; text-rendering:geometricPrecision; image-rendering:optimizeQuality; fill-rule:evenodd; clip-rule:evenodd"
viewBox="0 0 4.77 4.5"
 xmlns:xlink="http://www.w3.org/1999/xlink"
 xmlns:xodm="http://www.corel.com/coreldraw/odm/2003">
 <defs>
  <style type="text/css">
   <![CDATA[
    .str1 {stroke:#3E1175;stroke-width:0.05;stroke-miterlimit:22.9256}
    .str0 {stroke:#3E1175;stroke-width:0.02;stroke-miterlimit:22.9256}
    .fil1 {fill:#331E4D}
    .fil5 {fill:#3E1175}
    .fil0 {fill:#3E1175}
    .fil3 {fill:#45236E}
    .fil6 {fill:#471D7A}
    .fil4 {fill:#5E388C}
    .fil2 {fill:#815AB0}
   ]]>
  </style>
 </defs>
 <g id="Camada_x0020_1">
  <metadata id="CorelCorpID_0Corel-Layer"/>
  <g id="_2817977982336">
   <path class="fil0 str0" d="M3.13 0.76l1.34 0 0.01 0 0 2.88 -0.01 0 -2.08 -0.01 0 0.01 0 0.28 0.98 0c0.07,-0.01 0.92,0 1.07,0 0.13,0 0.24,0.02 0.3,-0.06 0.01,-0.01 0.02,-0.04 0.02,-0.06l0 -0.27c0,-0.95 -0.01,-1.92 0,-2.86l0 -0.03c0,-0.11 -0.04,-0.17 -0.17,-0.17 -0.24,0 -1.35,0 -1.58,0 0.04,0.04 0.08,0.02 0.11,0.09 0.01,0.05 0.01,0.15 0.01,0.2z"/>
   <path class="fil1" d="M2.38 1.28c0.13,-0.02 0.4,-0.13 0.53,-0.17 0.18,-0.06 0.35,-0.12 0.53,-0.17l0.28 -0.1 0 0.81c0.01,0.07 0.07,0.13 0.16,0.11 0.16,-0.02 0.12,-0.27 0.12,-0.42 0,-0.18 0.01,-0.38 -0.01,-0.55 0.01,-0.05 0.01,-0.15 -0.01,-0.19 -0.03,-0.08 -0.06,-0.06 -0.11,-0.1 -0.17,-0.04 -1.38,-0.5 -1.48,-0.5l-0.01 1.28z"/>
   <path class="fil2" d="M2.39 1.98l-0.01 -0.7c-0.07,-0.02 -0.19,-0.06 -0.26,-0.09 -0.09,-0.03 -0.17,-0.06 -0.26,-0.09 -0.16,-0.06 -0.37,-0.12 -0.52,-0.18 0,0.17 0,0.35 0,0.52 0,0.18 0.08,0.17 0.28,0.25 0.13,0.05 0.69,0.28 0.77,0.29z"/>
   <path class="fil3" d="M2.38 1.28l0.01 0.7c0.07,-0.01 0.81,-0.3 0.94,-0.36 0.07,-0.02 0.11,-0.06 0.11,-0.15 0,-0.18 0,-0.36 0,-0.53 -0.18,0.05 -0.35,0.11 -0.53,0.17 -0.13,0.04 -0.4,0.15 -0.53,0.17z"/>
   <path class="fil0 str0" d="M2.38 2.68c0.07,0 1.66,0 1.71,-0.01 0.07,-0.01 0.12,-0.07 0.12,-0.14 0,-0.15 -0.2,-0.14 -0.35,-0.13 -0.19,0 -2.01,-0.04 -2.09,0 -0.1,0.05 -0.11,0.22 0.01,0.26 0.05,0.03 0.51,0.01 0.6,0.02z"/>
   <path class="fil4" d="M2.39 4.49c0.4,0 0.79,0 1.19,0 0.08,0 0.21,0.02 0.28,-0.01 0.06,-0.04 0.09,-0.13 0.04,-0.2 -0.06,-0.12 -0.34,-0.04 -0.53,-0.07l-0.98 0 0 0.28z"/>
   <path class="fil4" d="M2.47 4.49l0 -0.28 -1.03 0c-0.22,0.02 -0.5,-0.04 -0.57,0.07 -0.05,0.08 -0.01,0.16 0.05,0.2 0.07,0.03 0.21,0.01 0.3,0.01 0.42,0 0.84,0 1.25,0z"/>
   <polygon class="fil5" points="1.41,4.21 2.39,4.21 2.39,3.93 1.41,3.93 "/>
   <polygon class="fil5" points="2.37,4.21 3.35,4.21 3.35,3.93 2.37,3.92 "/>
   <path class="fil0 str1" d="M1.37 0.79l-1.03 0 -0.01 0 0 2.86 0.01 0 2.31 0 0 0 0 0.28 -1.09 0.01c-0.07,-0.02 -1.01,-0.01 -1.18,-0.01 -0.14,0 -0.27,0.02 -0.33,-0.06 -0.01,-0.01 -0.02,-0.03 -0.03,-0.06l0 -0.27c0,-0.94 0.01,-1.9 0,-2.84l0 -0.03c0.01,-0.11 0.05,-0.17 0.2,-0.17 0.26,0 1.02,0 1.29,0 -0.05,0.04 -0.09,0.02 -0.12,0.09 -0.02,0.05 -0.02,0.15 -0.02,0.2z"/>
   <path class="fil6" d="M0.97 0.5c-0.05,0.04 -0.11,0.04 -0.12,0.14 0,0.06 0.02,0.1 0.07,0.12l0.05 0.03 0.37 0.13c0.15,0.06 0.36,0.12 0.52,0.18 0.09,0.03 0.17,0.06 0.26,0.09 0.07,0.03 0.19,0.07 0.26,0.09l0.01 -1.28c-0.07,0 -0.29,0.11 -0.36,0.13l-0.7 0.25c-0.06,0.02 -0.11,0.04 -0.18,0.06l-0.18 0.06z"/>
   <path class="fil0 str0" d="M2.38 3.23c0.07,0 1.66,0 1.71,-0.01 0.07,-0.01 0.12,-0.07 0.12,-0.14 0,-0.15 -0.2,-0.14 -0.35,-0.13 -0.19,0 -2.01,-0.04 -2.09,0 -0.1,0.05 -0.11,0.22 0.01,0.26 0.05,0.03 0.51,0.01 0.6,0.02z"/>
   <rect class="fil0 str1" x="0.58" y="2.4" width="0.83" height="0.83" rx="0.11" ry="0.11"/>
  </g>
 </g>
</svg>
