<?xml version="1.0" encoding="UTF-8"?>
<!DOCTYPE svg PUBLIC "-//W3C//DTD SVG 1.1//EN" "http://www.w3.org/Graphics/SVG/1.1/DTD/svg11.dtd">
<!-- Creator: CorelDRAW 2020 (64 Bit) -->
<svg xmlns="http://www.w3.org/2000/svg" xml:space="preserve" width="197px" height="240px" version="1.1" style="shape-rendering:geometricPrecision; text-rendering:geometricPrecision; image-rendering:optimizeQuality; fill-rule:evenodd; clip-rule:evenodd"
viewBox="0 0 3.54 4.3"
 xmlns:xlink="http://www.w3.org/1999/xlink"
 xmlns:xodm="http://www.corel.com/coreldraw/odm/2003">
 <defs>
  <style type="text/css">
   <![CDATA[
    .str0 {stroke:#FFDC4D;stroke-width:0.04;stroke-miterlimit:22.9256}
    .fil2 {fill:#38250F}
    .fil0 {fill:#3E1175}
    .fil4 {fill:#D6C6C8}
    .fil3 {fill:#FED949}
    .fil1 {fill:#FFDC4D}
    .fil5 {fill:#FFDC4D}
   ]]>
  </style>
 </defs>
 <g id="Camada_x0020_1">
  <metadata id="CorelCorpID_0Corel-Layer"/>
  <g id="_2853880136176">
   <path class="fil0" d="M0.76 4.29c0.03,-0.01 0.21,-0.01 0.25,-0.01 0.09,0 0.18,0.01 0.26,0.01l0.5 0.01c0.04,-0.01 0.04,0 0.04,-0.03 0,-0.01 0,-0.02 0,-0.03l0 -0.1c0,-0.01 0,-0.05 0,-0.05 -0.01,-0.04 0.01,-0.15 0.02,-0.18 0,-0.02 0.05,-0.11 0.06,-0.13 0.02,-0.03 0.06,-0.1 0.08,-0.12l0.07 -0.08c0.02,-0.03 0.04,-0.06 0.06,-0.09 0.01,-0.01 0.02,-0.01 0.02,-0.02 0.01,-0.02 0.02,-0.02 0.03,-0.03 0.02,-0.03 0.03,-0.05 0.05,-0.07 0,-0.01 0,-0.01 0.01,-0.02 0.01,-0.01 0.01,-0.01 0.02,-0.02 0.03,-0.04 0.05,-0.08 0.08,-0.12 0,0 0.07,-0.11 0.08,-0.12 0,-0.01 0.02,-0.04 0.03,-0.06 0.04,-0.06 0.06,-0.13 0.08,-0.2l0.02 -0.08c0,-0.03 0,-0.05 0.01,-0.08 0,-0.02 0.01,-0.16 0.01,-0.18 0,0 -0.01,0 -0.02,0 0,0 0,0 0,0 -0.02,-0.01 0,0 -0.01,-0.01l-0.36 -0.14c-0.04,-0.01 -0.08,-0.03 -0.12,-0.04l-0.38 -0.13c-0.04,-0.01 -0.08,-0.03 -0.12,-0.04 -0.08,-0.03 -0.16,-0.06 -0.25,-0.09 -0.16,-0.06 -0.33,-0.12 -0.49,-0.18 -0.04,-0.01 -0.08,-0.03 -0.12,-0.04 -0.04,-0.02 -0.08,-0.03 -0.12,-0.05 -0.02,0 -0.07,-0.03 -0.1,-0.03 -0.01,0.03 -0.01,0.02 -0.01,0.04 -0.01,0.01 -0.02,0.04 -0.02,0.05 0,0.02 0,0.03 -0.01,0.05 0,0.02 0,0.04 0,0.06 0,0.04 0,0.07 0,0.11 0,0.07 0,0.09 -0.01,0.16 -0.01,0.02 -0.01,0.06 -0.02,0.09 -0.03,0.05 -0.05,0.11 -0.08,0.16l-0.06 0.08c0,0.01 -0.01,0.02 -0.01,0.02l-0.16 0.25 -0.04 0.08c-0.01,0.01 -0.03,0.06 -0.03,0.08 0,0.01 0.01,0.05 0.02,0.07 0.01,0.01 0.05,0.01 0.07,0.02 0.06,0.02 0.12,0.02 0.13,0.07 0,0.01 0,0.02 0,0.03 0.01,0.12 0.02,0.2 0.03,0.31 0,0.03 0.02,0.11 0.03,0.13 0,0.01 0.01,0.03 0.02,0.06 0.01,0.01 0,0 0.01,0.01 0,0.01 0.01,0.03 0.02,0.05 0.02,0.02 0.01,0.01 0.05,0.03l0.02 0.01c0.01,0 0.02,0 0.03,0 0.02,0 0,0 0.05,0.01 0.02,0 0.03,0 0.05,0 0.02,0 0.04,0 0.06,0 0.01,0 0.02,0 0.02,0 0.02,0 0.01,0 0.03,0.01 0.02,0.02 0.03,0 0.03,0.08l-0.01 0.28c0,0.01 -0.01,0.01 -0.01,0.02 0,0.03 0,0.13 0,0.14 0.02,0.01 0.08,-0.01 0.11,-0.01z"/>
   <path class="fil0" d="M2.53 2.44c0,0.01 -0.01,0.03 -0.01,0.04 -0.01,0 0,0 -0.01,0 0.01,0.01 -0.01,0 0.01,0.01 0,0 0,0 0,0 0.01,0 0.02,0 0.02,0l-0.01 -0.01 0.03 0c0.09,-0.01 0.23,-0.06 0.31,-0.09 0.09,-0.04 0.14,-0.07 0.22,-0.12 0.08,-0.05 0.11,-0.08 0.16,-0.16 0.09,-0.12 0.2,-0.28 0.23,-0.43 0.01,0 0.01,-0.01 0.01,-0.02 0.02,-0.06 0.05,-0.29 0.05,-0.36 0,-0.12 -0.01,-0.13 -0.04,-0.23 0,-0.02 -0.01,-0.03 -0.01,-0.04 -0.03,-0.09 -0.06,-0.16 -0.1,-0.23l-0.14 -0.19c-0.01,-0.02 -0.03,-0.05 -0.04,-0.07 -0.01,-0.01 -0.02,-0.02 -0.03,-0.03 -0.01,-0.01 -0.05,-0.06 -0.06,-0.07 -0.01,0 -0.02,0 -0.02,-0.01 -0.01,0 -0.02,-0.02 -0.04,-0.02 -0.02,-0.01 -0.03,-0.02 -0.05,-0.02 0,0.01 -0.01,0.05 -0.01,0.06 -0.01,0.03 -0.02,0.08 -0.03,0.11 0,0.01 0,0.01 0,0.02 -0.01,0.02 -0.01,0.05 -0.02,0.07l-0.09 0.38c-0.01,0.03 -0.02,0.1 -0.03,0.13 -0.01,0.02 -0.02,0.1 -0.03,0.13 -0.01,0.02 -0.01,0.04 -0.01,0.06 -0.02,0.04 -0.05,0.18 -0.06,0.23l-0.1 0.48c-0.02,0.05 -0.04,0.14 -0.05,0.19 -0.02,0.05 -0.03,0.1 -0.04,0.14l-0.01 0.04c0,0 0,0.01 0,0.01 0,0 0,0 0,0z"/>
   <path class="fil1" d="M1.45 1.76c0.03,-0.01 0.11,0.01 0.13,0 0,-0.02 0,-0.11 0,-0.14 0,-0.09 0,-0.21 -0.01,-0.29 0,-0.04 0,-0.08 -0.01,-0.12 0,0 0,0 -0.01,-0.01 0,-0.01 -0.01,0 -0.04,-0.01 -0.02,-0.01 -0.1,-0.04 -0.07,-0.08 0.01,-0.01 0.03,-0.01 0.04,-0.01 0.02,0 0.03,0.01 0.04,0.02 0.04,0.04 0.02,0.03 0.04,0.06 0.02,-0.01 0.03,-0.02 0.04,-0.03 0.01,-0.01 0.02,-0.01 0.01,-0.03 -0.01,-0.03 -0.03,-0.13 0.02,-0.12 0.04,0 0.03,0.08 0.02,0.11 0,0.01 -0.01,0.01 -0.01,0.02 0.01,0.01 0.03,0.04 0.05,0.04 0,-0.01 0.01,-0.04 0.02,-0.05 0,-0.01 0.01,-0.03 0.02,-0.04 0.01,-0.02 0.05,-0.07 0.08,-0.03 0.02,0.02 -0.01,0.07 -0.02,0.09 -0.01,0.02 -0.02,0.02 -0.04,0.03 0,0.01 -0.01,0.01 -0.02,0.01 -0.01,0.01 -0.02,0.01 -0.03,0.01 -0.01,0.01 -0.03,0.1 -0.04,0.12l-0.02 0.14c-0.01,0.07 0,0.23 0,0.31l0.18 0c0.02,-0.02 0.03,-0.03 0.04,-0.06 0.03,-0.09 0,-0.11 0.08,-0.23 0.03,-0.04 0.06,-0.08 0.09,-0.11 0.02,-0.05 0.04,-0.09 0.05,-0.15 0.01,-0.05 0.02,-0.18 0,-0.23 -0.02,-0.06 -0.06,-0.12 -0.09,-0.17 -0.04,-0.04 -0.06,-0.06 -0.1,-0.1 -0.02,-0.01 -0.05,-0.03 -0.07,-0.03 -0.01,0 -0.04,-0.01 -0.05,-0.02 -0.1,-0.02 -0.19,-0.03 -0.29,0 -0.04,0.01 -0.07,0.02 -0.1,0.04 -0.01,0 -0.01,0.01 -0.01,0.01 -0.09,0.06 -0.19,0.19 -0.2,0.29 -0.01,0.09 -0.02,0.17 0.01,0.24 0.01,0.04 0.02,0.07 0.04,0.09 0.01,0.03 0.04,0.08 0.06,0.1 0.03,0.03 0.08,0.11 0.09,0.14 0.04,0.1 0,0.1 0.06,0.18 0,0 0.01,0.01 0.02,0.01z"/>
   <path class="fil2" d="M1.71 1.91c0.03,0 0.11,0 0.12,0.02 0,0.01 0,0.02 0,0.02 -0.01,0.01 -0.34,0.02 -0.37,0.01 -0.02,0 -0.02,-0.02 -0.01,-0.03 0.01,-0.01 0.03,-0.01 0.05,-0.01 0.07,0 0.14,0 0.21,-0.01zm-0.08 -0.81c-0.01,-0.01 -0.01,-0.02 -0.01,-0.03 -0.01,-0.01 -0.01,-0.02 -0.01,-0.03 0,-0.01 0,-0.01 0.01,-0.02 0,0 0.01,0 0.01,0 0.01,0 0.01,0 0.01,0.01 0,0 0,0 0,0.01 0,0.01 0,0.02 0,0.03 0,0.01 0,0.01 0,0.02 0,0 0,0 0,0 0,0 0,0.01 -0.01,0.01 0,0 0,0 0,0zm-0.13 0.74c0.01,-0.01 0.08,0 0.11,0 0.03,0 0.07,0 0.1,0 0.03,0 0.12,-0.01 0.12,0.02 0.01,0.04 -0.03,0.03 -0.04,0.03 -0.08,0 -0.15,0.01 -0.23,0.01 -0.04,0 -0.07,0 -0.1,-0.02 -0.01,0 -0.03,-0.02 -0.01,-0.03 0.01,-0.01 0.03,-0.01 0.05,-0.01zm-0.06 -0.04c-0.01,0 0,-0.02 0.01,-0.02 0.01,-0.01 0.1,0 0.13,0 0.02,0 0.01,0 0.03,0.01 0,0 0.03,0 0.03,0l0.01 -0.01c0.03,0 0.15,0 0.16,0 0.01,0.01 0.01,0.03 0,0.04 -0.01,0 -0.03,0 -0.04,0l-0.25 0c-0.03,0 -0.06,0 -0.08,-0.02zm0.19 -0.65c0.01,0 0.01,0 0.01,0.01 0.02,0.02 0.03,0.02 0.04,0.02 0,0.01 -0.01,0.05 -0.02,0.07 -0.01,0.05 -0.02,0.08 -0.03,0.13 -0.03,0.15 0,0.23 -0.01,0.37l-0.02 0c-0.01,-0.04 -0.01,-0.25 -0.01,-0.28 0,-0.08 0,-0.15 -0.01,-0.22 0,-0.02 -0.01,-0.04 -0.01,-0.06l0.06 -0.04zm-0.08 0.03c-0.04,0.01 -0.12,-0.03 -0.09,-0.06 0.02,-0.02 0.05,0 0.05,0.01 0.02,0.01 0.04,0.04 0.04,0.05zm0.16 0c0,-0.02 0.02,-0.07 0.03,-0.08 0,-0.01 0.01,-0.02 0.02,-0.03 0.01,-0.01 0.02,-0.02 0.03,-0.02 0.01,0.01 0.01,0.02 0.01,0.04 -0.01,0.01 -0.02,0.03 -0.02,0.04 -0.02,0.02 -0.04,0.05 -0.07,0.05zm-0.26 0.58c-0.01,0.01 -0.03,0.01 -0.03,0.03 0,0.02 0.02,0.03 0.03,0.04 -0.02,0.01 -0.04,0.01 -0.03,0.04 0,0 0.01,0.02 0.01,0.02 0.01,0 0.02,0.01 0.02,0.01 -0.01,0.01 -0.02,0.01 -0.03,0.03 0,0.02 0.01,0.03 0.02,0.04 0.01,0.01 0.06,0.01 0.08,0.01 0.01,0 0.01,0 0.02,0l0.15 0c0.01,0 0,0 0.02,0l0.1 0c0.04,-0.01 0.04,-0.05 0.03,-0.06 -0.01,0 -0.01,-0.01 -0.01,-0.01 0.01,-0.01 0.02,-0.01 0.02,-0.04 0,-0.03 -0.01,-0.03 -0.02,-0.04 0,-0.01 0.01,-0.01 0.01,-0.03 0,-0.03 -0.01,-0.03 -0.02,-0.04l-0.18 0c0,-0.08 -0.01,-0.24 0,-0.31l0.02 -0.14c0.01,-0.02 0.03,-0.11 0.04,-0.12 0.01,0 0.02,0 0.03,-0.01 0.01,0 0.02,0 0.02,-0.01 0.02,-0.01 0.03,-0.01 0.04,-0.03 0.01,-0.02 0.04,-0.07 0.02,-0.09 -0.03,-0.04 -0.07,0.01 -0.08,0.03 -0.01,0.01 -0.02,0.03 -0.02,0.04 -0.01,0.01 -0.02,0.04 -0.02,0.05 -0.02,0 -0.04,-0.03 -0.05,-0.04 0,-0.01 0.01,-0.01 0.01,-0.02 0.01,-0.03 0.02,-0.11 -0.02,-0.11 -0.05,-0.01 -0.03,0.09 -0.02,0.12 0.01,0.02 0,0.02 -0.01,0.03 -0.01,0.01 -0.02,0.02 -0.04,0.03 -0.02,-0.03 0,-0.02 -0.04,-0.06 -0.01,-0.01 -0.02,-0.02 -0.04,-0.02 -0.01,0 -0.03,0 -0.04,0.01 -0.03,0.04 0.05,0.07 0.07,0.08 0.03,0.01 0.04,0 0.04,0.01 0.01,0.01 0.01,0.01 0.01,0.01 0.01,0.04 0.01,0.08 0.01,0.12 0.01,0.08 0.01,0.2 0.01,0.29 0,0.03 0,0.12 0,0.14 -0.02,0.01 -0.1,-0.01 -0.13,0z"/>
   <path class="fil3" d="M1.57 1.19c0,0.02 0.01,0.04 0.01,0.06 0.01,0.07 0.01,0.14 0.01,0.22 0,0.03 0,0.24 0.01,0.28l0.02 0c0.01,-0.14 -0.02,-0.22 0.01,-0.37 0.01,-0.05 0.02,-0.08 0.03,-0.13 0.01,-0.02 0.02,-0.06 0.02,-0.07 -0.01,0 -0.02,0 -0.04,-0.02 0,-0.01 0,-0.01 -0.01,-0.01l-0.06 0.04z"/>
   <path class="fil4" d="M1.5 1.84c-0.02,0 -0.04,0 -0.05,0.01 -0.02,0.01 0,0.03 0.01,0.03 0.03,0.02 0.06,0.02 0.1,0.02 0.08,0 0.15,-0.01 0.23,-0.01 0.01,0 0.05,0.01 0.04,-0.03 0,-0.03 -0.09,-0.02 -0.12,-0.02 -0.03,0 -0.07,0 -0.1,0 -0.03,0 -0.1,-0.01 -0.11,0z"/>
   <path class="fil4" d="M1.71 1.91c-0.07,0.01 -0.14,0.01 -0.21,0.01 -0.02,0 -0.04,0 -0.05,0.01 -0.01,0.01 -0.01,0.03 0.01,0.03 0.03,0.01 0.36,0 0.37,-0.01 0,0 0,-0.01 0,-0.02 -0.01,-0.02 -0.09,-0.02 -0.12,-0.02z"/>
   <path class="fil4" d="M1.81 1.78c-0.01,0 -0.13,0 -0.16,0l-0.01 0.01c0,0 -0.03,0 -0.03,0 -0.02,-0.01 -0.01,-0.01 -0.03,-0.01 -0.03,0 -0.12,-0.01 -0.13,0 -0.01,0 -0.02,0.02 -0.01,0.02 0.02,0.02 0.05,0.02 0.08,0.02l0.25 0c0.01,0 0.03,0 0.04,0 0.01,-0.01 0.01,-0.03 0,-0.04z"/>
   <path class="fil4" d="M1.54 1.98c0,0.03 0.02,0.04 0.04,0.06 0.01,0 0.01,0 0.02,0 0.01,-0.01 0.04,-0.01 0.05,0 0.02,0 0.03,-0.02 0.04,-0.03 0,0 0,-0.01 0.01,-0.01 0,-0.01 0,-0.01 0,-0.01 0.01,-0.01 0,0 0.01,-0.01 -0.02,0 -0.01,0 -0.02,0l-0.15 0z"/>
   <rect class="fil5 str0" x="1.6" y="0.02" width="0.03" height="0.54"/>
   <rect class="fil5 str0" transform="matrix(0.306873 -0.104941 0.0901678 0.263673 1.20457 0.0879659)" width="0.09" height="1.93"/>
   <rect class="fil5 str0" transform="matrix(-0.306873 -0.104941 -0.0901678 0.263673 2.03265 0.0884266)" width="0.09" height="1.93"/>
   <rect class="fil5 str0" transform="matrix(0.234146 -0.224409 0.192817 0.201184 0.859753 0.349737)" width="0.09" height="1.93"/>
   <rect class="fil5 str0" transform="matrix(-0.234146 -0.224409 -0.192817 0.201184 2.40357 0.349737)" width="0.09" height="1.93"/>
  </g>
 </g>
</svg>
