<?xml version="1.0" encoding="UTF-8"?>
<!DOCTYPE svg PUBLIC "-//W3C//DTD SVG 1.1//EN" "http://www.w3.org/Graphics/SVG/1.1/DTD/svg11.dtd">
<!-- Creator: CorelDRAW 2020 (64 Bit) -->
<svg xmlns="http://www.w3.org/2000/svg" xml:space="preserve" width="282px" height="213px" version="1.1" style="shape-rendering:geometricPrecision; text-rendering:geometricPrecision; image-rendering:optimizeQuality; fill-rule:evenodd; clip-rule:evenodd"
viewBox="0 0 7.77 5.88"
 xmlns:xlink="http://www.w3.org/1999/xlink"
 xmlns:xodm="http://www.corel.com/coreldraw/odm/2003">
 <defs>
  <style type="text/css">
   <![CDATA[
    .fil0 {fill:#3E1175}
   ]]>
  </style>
 </defs>
 <g id="Camada_x0020_1">
  <metadata id="CorelCorpID_0Corel-Layer"/>
  <g id="_2817977001648">
   <path class="fil0" d="M2.07 2.13c-0.01,-0.12 -0.02,-0.2 0.02,-0.31l1.16 0.01 0 0.3 -1.18 0zm-2.07 0.23l0 0.79c0.17,0.09 0.32,0.2 0.49,0.31 0.16,0.09 0.34,0.17 0.52,0.26 0.25,0.13 0.87,0.38 1.18,0.4 -0.01,-0.45 0,-0.52 0.46,-0.52 0.5,0 0.48,0.06 0.48,0.53 0.63,-0.1 1.84,-0.65 2.19,-0.98 -0.01,-0.45 0.14,-1 -0.35,-1.01 -0.34,-0.01 -1.09,0.04 -1.37,-0.02 -0.01,-0.69 0.08,-0.59 -0.95,-0.59 -1.02,0 -0.92,-0.1 -0.93,0.61l-1.45 0c-0.17,0.02 -0.2,0.1 -0.27,0.22z"/>
   <path class="fil0" d="M0 5.64c0.16,0.23 0.01,0.09 0.26,0.24l4.81 0c0.34,-0.18 0.25,-0.23 0.25,-1 0,-0.42 -0.01,-0.84 0,-1.26l-1.01 0.51c-0.3,0.13 -0.81,0.31 -1.17,0.37 -0.04,0.46 0.07,0.55 -0.46,0.55 -0.5,0 -0.49,-0.06 -0.49,-0.55 -0.49,-0.16 -0.52,-0.12 -1.16,-0.38 -0.39,-0.15 -0.69,-0.36 -1.03,-0.53l0 2.05z"/>
   <path class="fil0" d="M7.77 2.49l0 -0.36c-0.18,-0.28 -0.08,-0.17 -0.6,-0.24l-0.14 -0.41c0.05,-0.03 0.29,-0.25 0.31,-0.32 0.08,-0.2 -0.08,-0.33 -0.16,-0.42 -0.34,-0.42 -0.45,-0.12 -0.73,0.07 -0.07,-0.03 -0.33,-0.16 -0.4,-0.21 -0.01,-0.16 0.04,-0.36 -0.05,-0.48 -0.11,-0.14 -0.26,-0.06 -0.42,-0.12l-0.19 0c-0.24,0.16 -0.2,0.09 -0.23,0.52 -0.15,0.06 -0.31,0.09 -0.46,0.16 -0.25,-0.22 -0.31,-0.42 -0.67,-0.12 -0.3,0.25 -0.35,0.4 -0.02,0.67 -0.03,0.15 -0.14,0.25 -0.19,0.46 0.21,0 0.43,0 0.64,0 0.42,0 0.27,0.04 0.51,-0.15 0.29,-0.22 0.68,-0.25 1,-0.06 0.65,0.37 0.56,1.35 -0.1,1.59l0 0.85c0.19,-0.04 0.28,-0.11 0.43,-0.15 0.29,0.39 0.42,0.44 0.72,0.15 0.3,-0.29 0.33,-0.31 -0.08,-0.76 0.06,-0.13 0.12,-0.23 0.17,-0.38 0.62,0.02 0.53,0.02 0.66,-0.29z"/>
   <polygon class="fil0" points="2.44,4.76 2.87,4.76 2.88,3.89 2.45,3.9 "/>
   <path class="fil0" d="M0 5.88l0.26 0c-0.25,-0.15 -0.1,-0.01 -0.26,-0.24l0 0.24z"/>
  </g>
 </g>
</svg>
